<?xml version="1.0" standalone="no"?>
<!DOCTYPE svg PUBLIC "-//W3C//DTD SVG 20010904//EN"
 "http://www.w3.org/TR/2001/REC-SVG-20010904/DTD/svg10.dtd">
<svg version="1.0" xmlns="http://www.w3.org/2000/svg"
 width="492.000000pt" height="465.000000pt" viewBox="0 0 492.000000 465.000000"
 preserveAspectRatio="xMidYMid meet">

<g transform="translate(0.000000,465.000000) scale(0.100000,-0.100000)"
fill="#000000" stroke="none">
<path d="M1412 4303 c-27 -11 -42 -62 -42 -146 l0 -84 -147 -6 c-172 -7 -236
-22 -344 -78 -154 -80 -270 -227 -314 -398 -15 -58 -16 -180 -17 -1240 0
-1310 -3 -1245 69 -1385 52 -101 175 -222 274 -269 140 -68 134 -67 740 -67
l547 0 26 31 c32 38 33 70 2 106 l-24 28 -559 5 -558 5 -55 24 c-107 48 -180
111 -233 202 -54 93 -55 109 -60 724 -3 313 -2 712 1 887 l5 318 1573 0 1574
0 1 -182 c0 -241 9 -323 34 -343 28 -21 88 -19 116 4 l24 19 0 534 c0 478 -2
540 -18 598 -38 143 -122 267 -235 350 -124 91 -267 130 -479 130 l-93 0 0 85
c0 89 -15 137 -45 149 -35 13 -76 6 -100 -19 -23 -22 -25 -32 -25 -120 l0 -95
-755 0 -755 0 0 95 c0 88 -2 98 -25 120 -23 24 -69 32 -103 18z m-42 -498 c0
-89 15 -137 45 -149 34 -13 79 -6 102 16 21 20 23 30 23 120 l0 98 755 0 755
0 0 -99 c0 -96 1 -100 26 -120 26 -21 67 -27 99 -15 31 12 45 60 45 149 l0 87
158 -4 158 -3 75 -37 c97 -48 169 -121 217 -217 l37 -75 3 -213 3 -213 -1576
0 -1577 0 4 213 3 212 32 68 c36 75 116 166 179 203 89 53 139 63 292 64 l142
0 0 -85z"/>
<path d="M3130 2399 c-237 -30 -432 -124 -595 -284 -178 -174 -275 -369 -305
-609 -44 -350 98 -701 373 -921 94 -75 265 -164 377 -196 104 -29 342 -38 456
-16 322 61 604 282 745 582 70 150 83 214 83 425 0 216 -13 281 -90 439 -60
125 -113 198 -220 301 -172 166 -359 253 -599 280 -101 11 -132 11 -225 -1z
m327 -189 c258 -66 480 -258 581 -503 84 -202 83 -460 -3 -659 -109 -254 -343
-446 -612 -503 -90 -19 -255 -19 -351 1 -316 65 -582 324 -658 640 -21 86 -23
286 -5 369 105 477 580 774 1048 655z"/>
<path d="M3189 1881 l-29 -29 0 -242 c0 -251 6 -288 45 -304 9 -3 101 -6 205
-6 212 0 226 4 236 71 5 29 1 41 -19 65 l-25 29 -136 3 -136 4 0 194 c0 194 0
195 -25 219 -34 35 -78 33 -116 -4z"/>
</g>
</svg>
